<?xml version="1.0" encoding="UTF-8" standalone="no"?>
<!-- Created with Inkscape (http://www.inkscape.org/) -->

<svg
   xmlns:dc="http://purl.org/dc/elements/1.1/"
   xmlns:cc="http://creativecommons.org/ns#"
   xmlns:rdf="http://www.w3.org/1999/02/22-rdf-syntax-ns#"
   xmlns:svg="http://www.w3.org/2000/svg"
   xmlns="http://www.w3.org/2000/svg"
   xmlns:sodipodi="http://sodipodi.sourceforge.net/DTD/sodipodi-0.dtd"
   xmlns:inkscape="http://www.inkscape.org/namespaces/inkscape"
   width="744.09448819"
   height="1052.3622047"
   id="svg2"
   version="1.1"
   inkscape:version="0.92.3 (2405546, 2018-03-11)"
   inkscape:export-filename="C:\Users\Mara\Studium\HiWi\Software\ClosedLoopSystem\STUPS\PD_CopyDraw\imageProcessing\pythonextractor\shapes\lala.png"
   inkscape:export-xdpi="90"
   inkscape:export-ydpi="90"
   sodipodi:docname="drawing.svg">
  <defs
     id="defs4">
    <filter
       id="filter2995"
       inkscape:label="Lightness-Contrast"
       x="0"
       y="0"
       width="1"
       height="1"
       inkscape:menu="Color"
       inkscape:menu-tooltip="Increase or decrease lightness and contrast"
       color-interpolation-filters="sRGB">
      <feColorMatrix
         id="feColorMatrix2997"
         type="saturate"
         values="0"
         result="fbSourceGraphic" />
      <feColorMatrix
         result="fbSourceGraphicAlpha"
         in="fbSourceGraphic"
         values="0 0 0 -1 0 0 0 0 -1 0 0 0 0 -1 0 0 0 0 1 0"
         id="feColorMatrix2999" />
      <feColorMatrix
         id="feColorMatrix3001"
         type="saturate"
         values="0"
         in="fbSourceGraphic"
         result="fbSourceGraphic" />
      <feColorMatrix
         result="fbSourceGraphicAlpha"
         in="fbSourceGraphic"
         values="0 0 0 -1 0 0 0 0 -1 0 0 0 0 -1 0 0 0 0 1 0"
         id="feColorMatrix3003" />
      <feColorMatrix
         id="feColorMatrix3005"
         values="1"
         in="fbSourceGraphic"
         type="saturate"
         result="result2" />
      <feFlood
         id="feFlood3007"
         flood-color="rgb(254,102,0)"
         flood-opacity="1"
         result="result1" />
      <feBlend
         id="feBlend3009"
         in2="result2"
         mode="multiply"
         in="result1"
         result="result3" />
      <feComposite
         id="feComposite3011"
         in2="fbSourceGraphic"
         operator="in"
         k2="1"
         result="fbSourceGraphic" />
      <feColorMatrix
         result="fbSourceGraphicAlpha"
         in="fbSourceGraphic"
         values="0 0 0 -1 0 0 0 0 -1 0 0 0 0 -1 0 0 0 0 1 0"
         id="feColorMatrix3013" />
      <feFlood
         id="feFlood3015"
         result="result1"
         flood-opacity="0"
         flood-color="rgb(128,128,128)"
         in="fbSourceGraphic" />
      <feBlend
         id="feBlend3017"
         in2="fbSourceGraphic"
         mode="normal"
         result="result2" />
      <feComposite
         id="feComposite3019"
         in2="fbSourceGraphic"
         k2="1"
         operator="arithmetic"
         result="result4" />
      <feComposite
         id="feComposite3021"
         in2="fbSourceGraphic"
         operator="in" />
    </filter>
    <filter
       id="filter3023"
       inkscape:label="Desaturate"
       x="0"
       y="0"
       width="1"
       height="1"
       inkscape:menu="Color"
       inkscape:menu-tooltip="Render in shades of gray by reducing saturation to zero"
       color-interpolation-filters="sRGB">
      <feColorMatrix
         id="feColorMatrix3025"
         type="saturate"
         values="0" />
    </filter>
    <filter
       id="filter3027"
       inkscape:label="Desaturate"
       x="0"
       y="0"
       width="1"
       height="1"
       inkscape:menu="Color"
       inkscape:menu-tooltip="Render in shades of gray by reducing saturation to zero"
       color-interpolation-filters="sRGB">
      <feColorMatrix
         id="feColorMatrix3029"
         type="saturate"
         values="0" />
    </filter>
  </defs>
  <sodipodi:namedview
     id="base"
     pagecolor="#ffffff"
     bordercolor="#666666"
     borderopacity="1.0"
     inkscape:pageopacity="0.0"
     inkscape:pageshadow="2"
     inkscape:zoom="3.959798"
     inkscape:cx="356.81397"
     inkscape:cy="595.74984"
     inkscape:document-units="px"
     inkscape:current-layer="layer1"
     showgrid="true"
     inkscape:window-width="1827"
     inkscape:window-height="1177"
     inkscape:window-x="-8"
     inkscape:window-y="-8"
     inkscape:window-maximized="1"
     inkscape:snap-grids="false"
     showguides="true"
     inkscape:guide-bbox="true">
    <inkscape:grid
       type="xygrid"
       id="grid3815" />
  </sodipodi:namedview>
  <metadata
     id="metadata7">
    <rdf:RDF>
      <cc:Work
         rdf:about="">
        <dc:format>image/svg+xml</dc:format>
        <dc:type
           rdf:resource="http://purl.org/dc/dcmitype/StillImage" />
        <dc:title />
      </cc:Work>
    </rdf:RDF>
  </metadata>
  <g
     inkscape:label="Layer 1"
     inkscape:groupmode="layer"
     id="layer1">
    <g
       id="g3860"
       transform="translate(-395.9798,-87.630734)"
       inkscape:export-filename="C:\Users\Mara\Studium\HiWi\Software\ClosedLoopSystem\STUPS\PD_CopyDraw\imageProcessing\pythonextractor\shapes\132.png"
       inkscape:export-xdpi="90"
       inkscape:export-ydpi="90">
      <rect
         inkscape:export-ydpi="90"
         inkscape:export-xdpi="90"
         inkscape:export-filename="C:\Users\Mara\Studium\HiWi\Software\ClosedLoopSystem\STUPS\PD_CopyDraw\imageProcessing\pythonextractor\shapes\atom2.png"
         y="567.36218"
         x="635"
         height="80"
         width="70"
         id="rect3037"
         style="fill:#000000;stroke:#000000" />
      <path
         inkscape:export-ydpi="90"
         inkscape:export-xdpi="90"
         inkscape:export-filename="C:\Users\Mara\Studium\HiWi\Software\ClosedLoopSystem\STUPS\PD_CopyDraw\imageProcessing\pythonextractor\shapes\atom2.png"
         sodipodi:nodetypes="caaassaassc"
         inkscape:connector-curvature="0"
         id="path3813"
         d="m 634.32378,602.54075 c 0,0 6.89557,-0.16001 10.31907,0.17857 4.63586,0.45848 9.44614,0.71728 13.75001,2.5 6.95611,2.88131 13.14248,7.64027 18.57143,12.85715 4.56666,4.38827 12.14285,13.21428 11.42857,15.17857 -0.71429,1.96428 -27.67857,11.07143 -34.46429,8.39285 -6.78571,-2.67857 -0.50922,-42.73595 13.21429,-56.25 2.77856,-2.73615 7.86841,-4.09126 11.42857,-2.49999 6.18098,2.76268 4.61231,13.57861 10,17.67857 2.14834,1.63486 3.57143,1.60714 7.85714,1.96428 4.28572,0.35714 8.73731,0 8.73731,0"
         style="fill:#000000;stroke:#ffffff;stroke-width:0.1;stroke-linecap:butt;stroke-linejoin:miter;stroke-miterlimit:4;stroke-opacity:1;stroke-dasharray:none" />
    </g>
    <g
       id="g3856"
       transform="translate(-169.4531,-87.630734)"
       inkscape:export-filename="C:\Users\Mara\Studium\HiWi\Software\ClosedLoopSystem\STUPS\PD_CopyDraw\imageProcessing\pythonextractor\shapes\132.png"
       inkscape:export-xdpi="90"
       inkscape:export-ydpi="90">
      <rect
         inkscape:export-ydpi="90"
         inkscape:export-xdpi="90"
         inkscape:export-filename="C:\Users\Mara\Studium\HiWi\Software\ClosedLoopSystem\STUPS\PD_CopyDraw\imageProcessing\pythonextractor\shapes\atom1.png"
         y="567.36218"
         x="550"
         height="80"
         width="70"
         id="rect3037-1"
         style="fill:#000000;stroke:#000000" />
      <path
         inkscape:export-ydpi="90"
         inkscape:export-xdpi="90"
         inkscape:export-filename="C:\Users\Mara\Studium\HiWi\Software\ClosedLoopSystem\STUPS\PD_CopyDraw\imageProcessing\pythonextractor\shapes\atom1.png"
         sodipodi:nodetypes="ccscsssccsasc"
         inkscape:connector-curvature="0"
         id="path3848"
         d="m 549.21918,602.54075 4.54133,-0.17857 c 0,0 7.13235,-14.82143 11.06092,-21.60714 3.92857,-6.78572 18.39286,-8.57143 18.39286,-8.57143 0,0 7.67857,16.07143 -0.89286,25.17857 -8.57143,9.10714 -10.35714,8.21429 -14.64286,17.14286 -4.28571,8.92857 3.2143,23.75 6.25001,27.67857 1.51786,1.96429 3.44766,-3.22386 5.81115,-8.29693 l 7.55654,-20.81499 c 2.85267,-6.32424 3.703,-13.48119 7.43631,-11.03165 3.54317,2.32477 1.6413,13.80468 6.99713,14.72516 6.59937,1.13421 9.70695,-14.08314 14.1848,-14.22444 l 4.4875,-0.1416"
         style="fill:none;stroke:#ffffff;stroke-width:0.1;stroke-linecap:butt;stroke-linejoin:miter;stroke-miterlimit:4;stroke-opacity:1;stroke-dasharray:none" />
    </g>
    <g
       id="g3852"
       transform="translate(-155.31094,-87.630735)"
       inkscape:export-filename="C:\Users\Mara\Studium\HiWi\Software\ClosedLoopSystem\STUPS\PD_CopyDraw\imageProcessing\pythonextractor\shapes\132.png"
       inkscape:export-xdpi="90"
       inkscape:export-ydpi="90">
      <rect
         inkscape:export-ydpi="90"
         inkscape:export-xdpi="90"
         inkscape:export-filename="C:\Users\Mara\Studium\HiWi\Software\ClosedLoopSystem\STUPS\PD_CopyDraw\imageProcessing\pythonextractor\shapes\atom3.png"
         y="567.36218"
         x="465"
         height="80"
         width="70"
         id="rect3037-4"
         style="fill:#000000;stroke:#000000" />
      <path
         inkscape:export-ydpi="90"
         inkscape:export-xdpi="90"
         inkscape:export-filename="C:\Users\Mara\Studium\HiWi\Software\ClosedLoopSystem\STUPS\PD_CopyDraw\imageProcessing\pythonextractor\shapes\atom3.png"
         sodipodi:nodetypes="cccccccaac"
         inkscape:connector-curvature="0"
         id="path3850"
         d="m 464.54569,602.36218 c 0,0 5.09717,0.17857 5.81145,0.17857 15.91861,5.14268 15.14693,19.63603 15.89287,28.92858 0.53571,7.36607 0.78124,12.65625 1.08816,14.35547 8.34901,-33.62467 4.24511,-48.14054 -10.53292,-66.69365 l 46.0519,-8.91183 c -19.80673,13.98428 -15.92624,49.38819 -12.32144,74.82144 0,0 -2.00931,-37.51545 11.42857,-45.53572 3.32231,-1.98288 7.42162,2.2977 11.25001,2.85714 0.70999,0.10375 2.15073,0.0893 2.15073,0.0893"
         style="fill:none;stroke:#ffffff;stroke-width:0.1;stroke-linecap:butt;stroke-linejoin:miter;stroke-miterlimit:4;stroke-opacity:1;stroke-dasharray:none" />
    </g>
    <g
       inkscape:export-ydpi="90"
       inkscape:export-xdpi="90"
       inkscape:export-filename="C:\Users\Mara\Studium\HiWi\Software\ClosedLoopSystem\STUPS\PD_CopyDraw\imageProcessing\pythonextractor\shapes\132.png"
       transform="translate(-395.22219,-199.00005)"
       id="g3760">
      <rect
         style="fill:#000000;stroke:#000000"
         id="rect3756"
         width="70"
         height="80"
         x="635"
         y="567.36218"
         inkscape:export-filename="C:\Users\Mara\Studium\HiWi\Software\ClosedLoopSystem\STUPS\PD_CopyDraw\imageProcessing\pythonextractor\shapes\atom2.png"
         inkscape:export-xdpi="90"
         inkscape:export-ydpi="90" />
      <path
         style="fill:#000000;stroke:#ffffff;stroke-width:0.1;stroke-linecap:butt;stroke-linejoin:miter;stroke-miterlimit:4;stroke-dasharray:none;stroke-opacity:1"
         d="m 634.32378,602.54075 c 0,0 6.89557,-0.16001 10.31907,0.17857 4.63586,0.45848 9.44614,0.71728 13.75001,2.5 6.95611,2.88131 13.14248,7.64027 18.57143,12.85715 4.56666,4.38827 12.14285,13.21428 11.42857,15.17857 -0.71429,1.96428 -27.67857,11.07143 -34.46429,8.39285 -6.78571,-2.67857 -0.50922,-42.73595 13.21429,-56.25 2.77856,-2.73615 7.86841,-4.09126 11.42857,-2.49999 6.18098,2.76268 4.61231,13.57861 10,17.67857 2.14834,1.63486 3.57143,1.60714 7.85714,1.96428 4.28572,0.35714 8.73731,0 8.73731,0"
         id="path3758"
         inkscape:connector-curvature="0"
         sodipodi:nodetypes="caaassaassc"
         inkscape:export-filename="C:\Users\Mara\Studium\HiWi\Software\ClosedLoopSystem\STUPS\PD_CopyDraw\imageProcessing\pythonextractor\shapes\atom2.png"
         inkscape:export-xdpi="90"
         inkscape:export-ydpi="90" />
    </g>
    <g
       inkscape:export-ydpi="90"
       inkscape:export-xdpi="90"
       inkscape:export-filename="C:\Users\Mara\Studium\HiWi\Software\ClosedLoopSystem\STUPS\PD_CopyDraw\imageProcessing\pythonextractor\shapes\132.png"
       transform="translate(-144.70434,-199.25259)"
       id="g3766">
      <rect
         style="fill:#000000;stroke:#000000"
         id="rect3762"
         width="70"
         height="80"
         x="465"
         y="567.36218"
         inkscape:export-filename="C:\Users\Mara\Studium\HiWi\Software\ClosedLoopSystem\STUPS\PD_CopyDraw\imageProcessing\pythonextractor\shapes\atom3.png"
         inkscape:export-xdpi="90"
         inkscape:export-ydpi="90" />
      <path
         style="fill:none;stroke:#ffffff;stroke-width:0.1;stroke-linecap:butt;stroke-linejoin:miter;stroke-miterlimit:4;stroke-dasharray:none;stroke-opacity:1"
         d="m 464.54569,602.36218 c 0,0 5.09717,0.17857 5.81145,0.17857 15.91861,5.14268 15.14693,19.63603 15.89287,28.92858 0.53571,7.36607 0.78124,12.65625 1.08816,14.35547 8.34901,-33.62467 4.24511,-48.14054 -10.53292,-66.69365 l 46.0519,-8.91183 c -19.80673,13.98428 -15.92624,49.38819 -12.32144,74.82144 0,0 -2.00931,-37.51545 11.42857,-45.53572 3.32231,-1.98288 7.42162,2.2977 11.25001,2.85714 0.70999,0.10375 2.15073,0.0893 2.15073,0.0893"
         id="path3764"
         inkscape:connector-curvature="0"
         sodipodi:nodetypes="cccccccaac"
         inkscape:export-filename="C:\Users\Mara\Studium\HiWi\Software\ClosedLoopSystem\STUPS\PD_CopyDraw\imageProcessing\pythonextractor\shapes\atom3.png"
         inkscape:export-xdpi="90"
         inkscape:export-ydpi="90" />
    </g>
    <g
       inkscape:export-ydpi="90"
       inkscape:export-xdpi="90"
       inkscape:export-filename="C:\Users\Mara\Studium\HiWi\Software\ClosedLoopSystem\STUPS\PD_CopyDraw\imageProcessing\pythonextractor\shapes\132.png"
       transform="translate(-151.52289,-199.25259)"
       id="g3772">
      <rect
         style="fill:#000000;stroke:#000000"
         id="rect3768"
         width="70"
         height="80"
         x="550"
         y="567.36218"
         inkscape:export-filename="C:\Users\Mara\Studium\HiWi\Software\ClosedLoopSystem\STUPS\PD_CopyDraw\imageProcessing\pythonextractor\shapes\atom1.png"
         inkscape:export-xdpi="90"
         inkscape:export-ydpi="90" />
      <path
         style="fill:none;stroke:#ffffff;stroke-width:0.1;stroke-linecap:butt;stroke-linejoin:miter;stroke-miterlimit:4;stroke-dasharray:none;stroke-opacity:1"
         d="m 549.21918,602.54075 4.54133,-0.17857 c 0,0 7.13235,-14.82143 11.06092,-21.60714 3.92857,-6.78572 18.39286,-8.57143 18.39286,-8.57143 0,0 7.67857,16.07143 -0.89286,25.17857 -8.57143,9.10714 -10.35714,8.21429 -14.64286,17.14286 -4.28571,8.92857 3.2143,23.75 6.25001,27.67857 1.51786,1.96429 3.44766,-3.22386 5.81115,-8.29693 l 7.55654,-20.81499 c 2.85267,-6.32424 3.703,-13.48119 7.43631,-11.03165 3.54317,2.32477 1.6413,13.80468 6.99713,14.72516 6.59937,1.13421 9.70695,-14.08314 14.1848,-14.22444 l 4.4875,-0.1416"
         id="path3770"
         inkscape:connector-curvature="0"
         sodipodi:nodetypes="ccscsssccsasc"
         inkscape:export-filename="C:\Users\Mara\Studium\HiWi\Software\ClosedLoopSystem\STUPS\PD_CopyDraw\imageProcessing\pythonextractor\shapes\atom1.png"
         inkscape:export-xdpi="90"
         inkscape:export-ydpi="90" />
    </g>
  </g>
</svg>
